<svg width="76" height="76" viewBox="0 0 76 76" fill="none" xmlns="http://www.w3.org/2000/svg">
<g filter="url(#filter0_d_2886_637)">
<rect x="14.0027" y="4" width="47.9995" height="47.9995" rx="11.9999" fill="url(#paint0_radial_2886_637)"/>
</g>
<path d="M32.9924 28.1637C32.9924 25.571 35.0937 23.4686 37.6864 23.4686C40.2791 23.4686 42.3815 25.571 42.3815 28.1637C42.3815 30.7564 40.2791 32.8587 37.6864 32.8587C35.0937 32.8587 32.9924 30.7564 32.9924 28.1637ZM30.4544 28.1637C30.4544 32.1579 33.6921 35.3957 37.6864 35.3957C41.6806 35.3957 44.9184 32.1579 44.9184 28.1637C44.9184 24.1694 41.6806 20.9317 37.6864 20.9317C33.6921 20.9317 30.4545 24.1692 30.4545 28.1637H30.4544ZM43.5147 20.6449C43.5146 20.9792 43.6136 21.306 43.7992 21.584C43.9848 21.862 44.2486 22.0787 44.5574 22.2068C44.8662 22.3348 45.206 22.3684 45.5339 22.3033C45.8617 22.2383 46.1629 22.0774 46.3994 21.8411C46.6359 21.6049 46.7969 21.3038 46.8623 20.976C46.9276 20.6482 46.8943 20.3083 46.7665 19.9994C46.6387 19.6906 46.4222 19.4265 46.1443 19.2407C45.8665 19.0549 45.5398 18.9556 45.2055 18.9555H45.2048C44.7568 18.9557 44.3271 19.1337 44.0102 19.4505C43.6933 19.7673 43.5151 20.1969 43.5147 20.6449ZM31.9964 39.6279C30.6233 39.5654 29.8769 39.3366 29.3809 39.1434C28.7234 38.8874 28.2542 38.5825 27.7609 38.0899C27.2677 37.5973 26.9623 37.1286 26.7074 36.471C26.5141 35.9753 26.2854 35.2287 26.2229 33.8556C26.1547 32.371 26.141 31.925 26.141 28.1639C26.141 24.4028 26.1558 23.9581 26.2229 22.4722C26.2855 21.0991 26.5159 20.354 26.7074 19.8568C26.9634 19.1992 27.2683 18.73 27.7609 18.2368C28.2535 17.7435 28.7223 17.4381 29.3809 17.1833C29.8767 16.9899 30.6233 16.7612 31.9964 16.6988C33.481 16.6305 33.9269 16.6169 37.6864 16.6169C41.4458 16.6169 41.8922 16.6314 43.378 16.699C44.7512 16.7615 45.4963 16.992 45.9935 17.1835C46.6511 17.4384 47.1202 17.7444 47.6135 18.237C48.1068 18.7296 48.411 19.1994 48.667 19.857C48.8604 20.3528 49.0891 21.0993 49.1515 22.4725C49.2198 23.9583 49.2334 24.403 49.2334 28.1641C49.2334 31.9253 49.2198 32.37 49.1515 33.8558C49.089 35.2289 48.8591 35.9753 48.667 36.4713C48.411 37.1288 48.1061 37.598 47.6135 38.0901C47.1209 38.5823 46.6511 38.8876 45.9935 39.1436C45.4978 39.337 44.7512 39.5657 43.378 39.6281C41.8935 39.6964 41.4475 39.71 37.6864 39.71C33.9253 39.71 33.4805 39.6964 31.9964 39.6281V39.6279ZM31.8798 14.1649C30.3805 14.2332 29.3559 14.4709 28.4612 14.8191C27.5351 15.1786 26.7501 15.661 25.9663 16.4436C25.1824 17.2262 24.7013 18.0113 24.3418 18.9385C23.9936 19.8338 23.7559 20.8578 23.6876 22.3571C23.6182 23.8588 23.6023 24.3389 23.6023 28.1637C23.6023 31.9885 23.6182 32.4686 23.6876 33.9703C23.7559 35.4697 23.9936 36.4936 24.3418 37.3889C24.7013 38.3149 25.1825 39.1015 25.9663 39.8838C26.75 40.6661 27.534 41.1477 28.4612 41.5083C29.3576 41.8564 30.3805 42.0942 31.8798 42.1625C33.3823 42.2307 33.8616 42.2478 37.6864 42.2478C41.5112 42.2478 41.9913 42.2319 43.493 42.1625C44.9924 42.0942 46.0163 41.8564 46.9116 41.5083C47.8376 41.1477 48.6226 40.6664 49.4065 39.8838C50.1904 39.1012 50.6705 38.3149 51.031 37.3889C51.3792 36.4936 51.618 35.4696 51.6852 33.9703C51.7535 32.4674 51.7693 31.9885 51.7693 28.1637C51.7693 24.3389 51.7535 23.8588 51.6852 22.3571C51.6169 20.8576 51.3792 19.8332 51.031 18.9385C50.6705 18.0124 50.1891 17.2274 49.4065 16.4436C48.6239 15.6597 47.8376 15.1786 46.9127 14.8191C46.0163 14.4709 44.9923 14.232 43.4941 14.1649C41.9922 14.0963 41.5123 14.0796 37.6881 14.0796C33.8639 14.0796 33.3829 14.0955 31.8804 14.1649" fill="white"/>
<defs>
<filter id="filter0_d_2886_637" x="0.108099" y="0.210567" width="75.7887" height="75.7887" filterUnits="userSpaceOnUse" color-interpolation-filters="sRGB">
<feFlood flood-opacity="0" result="BackgroundImageFix"/>
<feColorMatrix in="SourceAlpha" type="matrix" values="0 0 0 0 0 0 0 0 0 0 0 0 0 0 0 0 0 0 127 0" result="hardAlpha"/>
<feOffset dy="10.1052"/>
<feGaussianBlur stdDeviation="6.94729"/>
<feColorMatrix type="matrix" values="0 0 0 0 0.983333 0 0 0 0 0.0573611 0 0 0 0 0.354726 0 0 0 0.14 0"/>
<feBlend mode="normal" in2="BackgroundImageFix" result="effect1_dropShadow_2886_637"/>
<feBlend mode="normal" in="SourceGraphic" in2="effect1_dropShadow_2886_637" result="shape"/>
</filter>
<radialGradient id="paint0_radial_2886_637" cx="0" cy="0" r="1" gradientUnits="userSpaceOnUse" gradientTransform="translate(17.1092 50.948) scale(60.9415)">
<stop offset="0.09" stop-color="#FA8F21"/>
<stop offset="0.78" stop-color="#EB2482"/>
</radialGradient>
</defs>
</svg>
