<svg width="76" height="76" viewBox="0 0 76 76" fill="none" xmlns="http://www.w3.org/2000/svg">
<g filter="url(#filter0_d_2886_648)">
<rect x="14.0006" y="4" width="47.9995" height="47.9995" rx="11.9999" fill="#0B091B"/>
</g>
<path fill-rule="evenodd" clip-rule="evenodd" d="M43.9275 23.9961C45.7869 25.3246 48.0651 26.1063 50.5254 26.1063V21.3742C50.0597 21.3744 49.5953 21.3258 49.1398 21.2292V24.9542C46.6796 24.9542 44.4018 24.1724 42.5418 22.8439V32.5007C42.5418 37.3316 38.6237 41.2475 33.7906 41.2475C31.9874 41.2475 30.3112 40.7026 28.9188 39.7681C30.508 41.3921 32.7241 42.3997 35.1759 42.3997C40.0093 42.3997 43.9276 38.4837 43.9276 33.6527V23.9961H43.9275ZM45.6367 19.2219C44.6864 18.1843 44.0625 16.8432 43.9275 15.3606V14.752H42.6144C42.9449 16.6363 44.0722 18.2461 45.6367 19.2219ZM31.9757 36.0612C31.4448 35.3654 31.1578 34.5141 31.1591 33.6389C31.1591 31.4294 32.9513 29.6381 35.1623 29.6381C35.5743 29.6378 35.9839 29.701 36.3767 29.8255V24.9877C35.9178 24.9248 35.4546 24.8982 34.9916 24.908V28.6735C34.5986 28.549 34.1889 28.4858 33.7767 28.4861C31.5657 28.4861 29.7736 30.2774 29.7736 32.4871C29.7736 34.0494 30.6694 35.4023 31.9757 36.0612Z" fill="#EE1D52"/>
<path fill-rule="evenodd" clip-rule="evenodd" d="M42.5427 22.8439C44.4027 24.1724 46.6805 24.9542 49.1406 24.9542V21.2292C47.7674 20.937 46.5517 20.2196 45.6376 19.2219C44.0731 18.2461 42.9457 16.6363 42.6153 14.752H39.1663V33.6525C39.1584 35.8559 37.3693 37.64 35.163 37.64C33.8629 37.64 32.7078 37.0207 31.9764 36.0612C30.6701 35.4023 29.7743 34.0494 29.7743 32.4871C29.7743 30.2775 31.5664 28.4861 33.7774 28.4861C34.201 28.4861 34.6093 28.552 34.9923 28.6735V24.908C30.2441 25.006 26.4254 28.8837 26.4254 33.6527C26.4254 36.0333 27.3764 38.1915 28.9197 39.7683C30.3121 40.7028 31.9883 41.2477 33.7915 41.2477C38.6246 41.2477 42.5427 37.3316 42.5427 32.5009V22.8439Z" fill="white"/>
<path fill-rule="evenodd" clip-rule="evenodd" d="M49.1402 21.2294V20.2222C47.9018 20.224 46.6879 19.8774 45.6372 19.2219C46.5672 20.2396 47.7919 20.9415 49.1402 21.2294ZM42.6148 14.7521C42.5833 14.572 42.5591 14.3907 42.5423 14.2087V13.6001H37.7801V32.5008C37.7724 34.7041 35.9834 36.4881 33.777 36.4881C33.1291 36.4881 32.5176 36.3345 31.9759 36.0613C32.7074 37.0208 33.8624 37.6401 35.1626 37.6401C37.3687 37.6401 39.158 35.8561 39.1658 33.6527V14.7521H42.6148ZM34.992 24.9081V23.8358C34.5941 23.7814 34.1929 23.7542 33.7913 23.7544C28.9577 23.7544 25.0396 27.6705 25.0396 32.5008C25.0396 35.5293 26.5794 38.1983 28.9194 39.7682C27.3761 38.1915 26.4252 36.0333 26.4252 33.6527C26.4252 28.8838 30.2437 25.0061 34.992 24.9081Z" fill="#69C9D0"/>
<defs>
<filter id="filter0_d_2886_648" x="0.106024" y="0.210567" width="75.7887" height="75.7887" filterUnits="userSpaceOnUse" color-interpolation-filters="sRGB">
<feFlood flood-opacity="0" result="BackgroundImageFix"/>
<feColorMatrix in="SourceAlpha" type="matrix" values="0 0 0 0 0 0 0 0 0 0 0 0 0 0 0 0 0 0 127 0" result="hardAlpha"/>
<feOffset dy="10.1052"/>
<feGaussianBlur stdDeviation="6.94729"/>
<feColorMatrix type="matrix" values="0 0 0 0 0.983333 0 0 0 0 0.0573611 0 0 0 0 0.354726 0 0 0 0.14 0"/>
<feBlend mode="normal" in2="BackgroundImageFix" result="effect1_dropShadow_2886_648"/>
<feBlend mode="normal" in="SourceGraphic" in2="effect1_dropShadow_2886_648" result="shape"/>
</filter>
</defs>
</svg>
