<svg width="76" height="76" viewBox="0 0 76 76" fill="none" xmlns="http://www.w3.org/2000/svg">
<g filter="url(#filter0_d_2886_645)">
<rect x="14.0041" y="4" width="47.9995" height="47.9995" rx="11.9999" fill="url(#paint0_linear_2886_645)"/>
</g>
<path d="M42.0417 17.924V17.9194H43.2345L43.6704 18.0065C43.961 18.063 44.2248 18.1371 44.4618 18.2287C44.6988 18.3203 44.9282 18.4272 45.15 18.5494C45.3717 18.6716 45.5728 18.796 45.7533 18.9228C45.9322 19.048 46.0928 19.1809 46.235 19.3214C46.3757 19.4634 46.5951 19.5001 46.8934 19.4313C47.1916 19.3626 47.5127 19.2672 47.8568 19.145C48.2009 19.0228 48.5412 18.8854 48.8776 18.7327C49.2141 18.5799 49.419 18.483 49.4924 18.4417C49.5643 18.399 49.6025 18.3761 49.6071 18.373L49.6117 18.3661L49.6346 18.3547L49.6575 18.3432L49.6805 18.3318L49.7034 18.3203L49.708 18.3134L49.7149 18.3089L49.7218 18.3043L49.7264 18.2974L49.7493 18.2905L49.7722 18.286L49.7677 18.3203L49.7608 18.3547L49.7493 18.389L49.7378 18.4234L49.7264 18.4463L49.7149 18.4692L49.7034 18.5036C49.6958 18.5265 49.6881 18.557 49.6805 18.5952C49.6728 18.6334 49.6002 18.7861 49.4626 19.0534C49.3249 19.3206 49.1529 19.5917 48.9464 19.8666C48.74 20.1415 48.5549 20.3492 48.3913 20.4897C48.2262 20.6317 48.1168 20.731 48.0633 20.7875C48.0097 20.8455 47.9448 20.8989 47.8683 20.9478L47.7536 21.0234L47.7306 21.0349L47.7077 21.0463L47.7031 21.0532L47.6962 21.0578L47.6894 21.0624L47.6848 21.0692L47.6618 21.0807L47.6389 21.0921L47.6343 21.099L47.6274 21.1036L47.6205 21.1082L47.6159 21.115L47.6114 21.1219L47.6045 21.1265L47.5976 21.1311L47.593 21.138H47.7077L48.35 21.0005C48.7782 20.9089 49.1873 20.7982 49.5773 20.6683L50.1966 20.4622L50.2654 20.4393L50.2998 20.4278L50.3228 20.4164L50.3457 20.4049L50.3687 20.3935L50.3916 20.382L50.4375 20.3751L50.4834 20.3706V20.4164L50.4719 20.4209L50.4604 20.4278L50.4559 20.4347L50.449 20.4393L50.4421 20.4439L50.4375 20.4507L50.4329 20.4576L50.426 20.4622L50.4191 20.4668L50.4145 20.4736L50.41 20.4805L50.4031 20.4851L50.3916 20.508L50.3801 20.5309L50.3733 20.5355C50.3702 20.5401 50.2731 20.6699 50.0819 20.9249C49.8908 21.1815 49.7875 21.3113 49.7722 21.3143C49.757 21.3189 49.7355 21.3418 49.708 21.3831C49.682 21.4258 49.5199 21.5961 49.2217 21.8939C48.9235 22.1917 48.6314 22.4567 48.3454 22.6888C48.0579 22.9225 47.9126 23.2096 47.9096 23.5501C47.905 23.8892 47.8874 24.2725 47.8568 24.7001C47.8262 25.1277 47.7689 25.5897 47.6848 26.086C47.6007 26.5823 47.4707 27.1436 47.2948 27.7697C47.1189 28.3958 46.9048 29.0067 46.6525 29.6023C46.4002 30.1979 46.1364 30.7324 45.8611 31.2059C45.5858 31.6793 45.3335 32.0802 45.1041 32.4085C44.8747 32.7368 44.6415 33.0461 44.4044 33.3363C44.1674 33.6264 43.8677 33.9533 43.5052 34.3167C43.1413 34.6787 42.9425 34.8772 42.9088 34.9123C42.8737 34.9459 42.7238 35.0712 42.4592 35.288C42.1962 35.5064 41.9132 35.7248 41.6104 35.9432C41.3092 36.16 41.0324 36.341 40.78 36.4861C40.5277 36.6311 40.2234 36.7968 39.867 36.9832C39.5123 37.171 39.1284 37.3451 38.7155 37.5055C38.3026 37.6658 37.8667 37.8147 37.4079 37.9522C36.9492 38.0896 36.5057 38.1965 36.0775 38.2729C35.6493 38.3492 35.1637 38.4141 34.6208 38.4676L33.8065 38.5478V38.5592H32.3154V38.5478L32.1204 38.5363C31.9905 38.5287 31.8834 38.521 31.7993 38.5134C31.7152 38.5058 31.3978 38.4638 30.8473 38.3874C30.2967 38.3111 29.8647 38.2347 29.5512 38.1583C29.2377 38.082 28.7713 37.9369 28.1519 37.7231C27.5326 37.5093 27.0027 37.2932 26.5622 37.0748C26.1233 36.8579 25.8481 36.7205 25.7364 36.6625C25.6263 36.6059 25.5024 36.5357 25.3648 36.4517L25.1583 36.3257L25.1538 36.3188L25.1469 36.3143L25.14 36.3097L25.1354 36.3028L25.1125 36.2914L25.0895 36.2799L25.085 36.273L25.078 36.2684L25.0712 36.2639L25.0666 36.257L25.062 36.2501L25.0551 36.2455H25.0436V36.1997L25.0666 36.2043L25.0895 36.2112L25.1927 36.2226C25.2616 36.2303 25.4489 36.2417 25.7548 36.257C26.0606 36.2723 26.3856 36.2723 26.7297 36.257C27.0738 36.2417 27.4255 36.2074 27.7849 36.1539C28.1443 36.1005 28.5687 36.0088 29.058 35.879C29.5474 35.7492 29.997 35.595 30.4069 35.4163C30.8152 35.2361 31.1057 35.1017 31.2786 35.0131C31.4498 34.9261 31.7113 34.7642 32.0631 34.5275L32.5907 34.1724L32.5953 34.1655L32.6022 34.1609L32.6091 34.1564L32.6136 34.1495L32.6182 34.1426L32.6251 34.138L32.632 34.1335L32.6366 34.1266L32.6595 34.1197L32.6824 34.1151L32.687 34.0922L32.6939 34.0693L32.7008 34.0647L32.7054 34.0579L32.5219 34.0464C32.3995 34.0388 32.281 34.0311 32.1663 34.0235C32.0516 34.0159 31.8719 33.9815 31.6272 33.9204C31.3826 33.8593 31.1188 33.7677 30.8358 33.6455C30.5529 33.5234 30.2776 33.3783 30.01 33.2103C29.7424 33.0423 29.5489 32.9025 29.4296 32.7911C29.3119 32.6811 29.159 32.5253 28.9709 32.3238C28.7843 32.1207 28.6222 31.9122 28.4845 31.6984C28.3469 31.4846 28.2154 31.2379 28.09 30.9585L27.8996 30.5415L27.8881 30.5072L27.8766 30.4728L27.8698 30.4499L27.8652 30.427L27.8996 30.4316L27.934 30.4385L28.1863 30.4728C28.3546 30.4957 28.6184 30.5034 28.9777 30.4957C29.3371 30.4881 29.5856 30.4728 29.7233 30.4499C29.8609 30.427 29.945 30.4117 29.9756 30.4041L30.0215 30.3926L30.0788 30.3812L30.1362 30.3697L30.1408 30.3629L30.1476 30.3583L30.1545 30.3537L30.1591 30.3468L30.1132 30.3354L30.0674 30.3239L30.0215 30.3125L29.9756 30.301L29.9297 30.2896C29.8991 30.2819 29.8456 30.2666 29.7691 30.2437C29.6927 30.2208 29.4862 30.1368 29.1498 29.9918C28.8134 29.8467 28.5457 29.7054 28.3469 29.568C28.1476 29.4301 27.9576 29.2794 27.778 29.1167C27.5991 28.9517 27.4026 28.7395 27.1885 28.4799C26.9744 28.2202 26.7832 27.9186 26.615 27.575C26.4468 27.2314 26.3206 26.9031 26.2365 26.59C26.1527 26.2787 26.0974 25.9605 26.0713 25.6393L26.03 25.1582L26.053 25.1628L26.0759 25.1697L26.0988 25.1812L26.1218 25.1926L26.1447 25.2041L26.1677 25.2155L26.5232 25.3759C26.7603 25.4828 27.0547 25.5744 27.4064 25.6508C27.7581 25.7271 27.9684 25.7691 28.0372 25.7768L28.1405 25.7882H28.3469L28.3423 25.7813L28.3354 25.7768L28.3286 25.7722L28.324 25.7653L28.3194 25.7584L28.3125 25.7538L28.3056 25.7493L28.301 25.7424L28.2781 25.7309L28.2551 25.7195L28.2506 25.7126L28.2437 25.708L28.2368 25.7034L28.2322 25.6966L28.2093 25.6851L28.1863 25.6737L28.1818 25.6668C28.1772 25.6637 28.1114 25.6149 27.9845 25.5202C27.8591 25.424 27.7275 25.2995 27.5899 25.1468C27.4523 24.9941 27.3146 24.8337 27.177 24.6657C27.0391 24.4974 26.9163 24.3172 26.81 24.1274C26.7029 23.9365 26.5898 23.6937 26.4705 23.3989C26.3527 23.1057 26.2633 22.8102 26.2021 22.5124C26.1409 22.2146 26.1065 21.9206 26.0988 21.6305C26.0912 21.3403 26.0988 21.0921 26.1218 20.886C26.1447 20.6798 26.1906 20.4469 26.2594 20.1873C26.3282 19.9277 26.4277 19.6528 26.5576 19.3626L26.7526 18.9274L26.7641 18.893L26.7756 18.8586L26.7825 18.8541L26.787 18.8472L26.7916 18.8403L26.7985 18.8357L26.8054 18.8403L26.81 18.8472L26.8146 18.8541L26.8214 18.8586L26.8283 18.8632L26.8329 18.8701L26.8375 18.877L26.8444 18.8816L26.8558 18.9045L26.8673 18.9274L26.8742 18.932L26.8788 18.9388L27.1885 19.2824C27.3949 19.5115 27.6396 19.7673 27.9225 20.0498C28.2055 20.3324 28.3622 20.479 28.3928 20.4897C28.4234 20.5019 28.4616 20.537 28.5075 20.595C28.5534 20.6516 28.7063 20.7867 28.9663 21.0005C29.2263 21.2143 29.5665 21.4625 29.9871 21.745C30.4076 22.0275 30.8741 22.3062 31.3864 22.5811C31.8987 22.856 32.4492 23.1042 33.038 23.3256C33.6268 23.5471 34.0397 23.6922 34.2767 23.7609C34.5138 23.8296 34.919 23.9174 35.4925 24.0243C36.066 24.1312 36.498 24.2 36.7886 24.2305C37.0792 24.261 37.278 24.2786 37.385 24.2832L37.5456 24.2878L37.541 24.2534L37.5341 24.219L37.4882 23.9327C37.4577 23.7418 37.4424 23.4745 37.4424 23.1309C37.4424 22.7873 37.4691 22.4704 37.5226 22.1803C37.5762 21.8901 37.6565 21.5961 37.7635 21.2983C37.8706 21.0005 37.9753 20.7615 38.0778 20.5813C38.1818 20.4026 38.3179 20.1987 38.4861 19.9697C38.6543 19.7406 38.8723 19.5039 39.1399 19.2595C39.4075 19.0152 39.7133 18.7976 40.0574 18.6067C40.4015 18.4158 40.7189 18.2707 41.0094 18.1714C41.3 18.0722 41.5447 18.0072 41.7435 17.9767C41.9423 17.9462 42.0417 17.9286 42.0417 17.924Z" fill="white"/>
<defs>
<filter id="filter0_d_2886_645" x="0.109503" y="0.210567" width="75.7886" height="75.7887" filterUnits="userSpaceOnUse" color-interpolation-filters="sRGB">
<feFlood flood-opacity="0" result="BackgroundImageFix"/>
<feColorMatrix in="SourceAlpha" type="matrix" values="0 0 0 0 0 0 0 0 0 0 0 0 0 0 0 0 0 0 127 0" result="hardAlpha"/>
<feOffset dy="10.1052"/>
<feGaussianBlur stdDeviation="6.94729"/>
<feColorMatrix type="matrix" values="0 0 0 0 0.105882 0 0 0 0 0.729412 0 0 0 0 1 0 0 0 0.27 0"/>
<feBlend mode="normal" in2="BackgroundImageFix" result="effect1_dropShadow_2886_645"/>
<feBlend mode="normal" in="SourceGraphic" in2="effect1_dropShadow_2886_645" result="shape"/>
</filter>
<linearGradient id="paint0_linear_2886_645" x1="38.0038" y1="4" x2="38.0038" y2="51.9995" gradientUnits="userSpaceOnUse">
<stop stop-color="#1DA1F2"/>
<stop offset="1" stop-color="#0581DB"/>
</linearGradient>
</defs>
</svg>
