<svg width="33" height="39" viewBox="0 0 33 39" fill="none" xmlns="http://www.w3.org/2000/svg">
<path d="M3.19898 11.6168C2.46693 14.3489 1.73488 17.0809 1.00283 19.813C0.0072406 23.5285 0.580958 27.8623 2.50596 31.1965C4.34596 34.3835 7.9526 37.3703 11.6128 38.19C15.3997 39.029 19.6222 38.8427 22.9963 36.6869C26.3531 34.541 28.9394 31.5005 29.9899 27.58L32.186 19.3839C33.1816 15.6683 32.6079 11.3345 30.6829 8.00033C28.8429 4.81335 25.2362 1.82653 21.576 1.00682C17.7892 0.167834 13.5666 0.354063 10.1925 2.50995C6.83571 4.65583 4.25814 7.69131 3.19898 11.6168Z" fill="#FB0F5A"/>
</svg>
