<svg width="136" height="150" viewBox="0 0 136 150" fill="none" xmlns="http://www.w3.org/2000/svg">
<path d="M82.7086 8.80763C75.9498 14.5687 71.5078 22.5073 70.7345 31.459C70.0366 39.4977 71.5962 47.2192 73.0941 55.0472C73.796 58.7093 74.4505 62.3943 74.7475 66.1253C74.8225 67.0676 74.8777 68.017 74.8979 68.9624C74.9074 69.2953 74.888 70.7147 74.9023 70.6927C74.8058 72.4372 74.5716 74.187 74.18 75.8876C74.09 76.2846 73.9798 76.6722 73.883 77.0661C73.8665 77.1282 73.855 77.1885 73.8398 77.2388C73.8224 77.2676 73.8067 77.3012 73.783 77.3435C73.4226 78.0407 73.2018 78.8609 72.8719 79.5807C72.4968 80.4065 72.0882 81.2166 71.6422 82.0011C71.5443 82.1768 71.4346 82.3512 71.3299 82.5238C71.3196 82.5108 70.7339 83.4021 70.6556 83.5091C69.7081 84.8179 68.6556 86.0529 67.5294 87.2082C67.5536 87.1826 67.0122 87.7047 66.7748 87.9424C66.6145 88.0849 66.4362 88.2394 66.3811 88.2875C65.6076 88.9389 64.8048 89.5562 63.9778 90.1374C63.2355 90.6598 62.4707 91.1512 61.6901 91.6146C61.4043 91.7803 61.1166 91.941 60.824 92.1036C60.7469 92.1372 60.6599 92.1745 60.5501 92.2257C58.8807 92.9622 57.2222 93.5602 55.4946 94.1218C55.3844 94.1563 55.3005 94.1868 55.2248 94.2088C54.8056 94.2997 54.3877 94.3789 53.9663 94.4482C53.0821 94.5963 52.1952 94.7062 51.302 94.7679C50.5679 94.8221 49.8311 94.838 49.0938 94.8374C49.0238 94.8292 48.9489 94.8229 48.8605 94.8102C48.2626 94.7476 47.6665 94.6899 47.0712 94.6039C40.3082 93.6187 33.9297 90.7448 27.0697 90.3217C22.2491 90.025 17.622 90.7508 13.425 93.3489C8.29785 96.5208 5.49888 101.917 3.96998 107.596C2.55573 112.869 2.43809 118.482 1.98916 123.892C1.49612 129.793 1.00307 135.695 0.510025 141.597C0.205583 145.255 2.18185 148.767 5.97598 149.404C9.3112 149.961 13.4267 147.477 13.7356 143.8C14.5521 134.031 14.9355 124.1 16.2965 114.386C16.4398 113.353 16.6132 112.326 16.8332 111.304C16.9259 110.883 17.0217 110.456 17.1376 110.039C17.1881 109.886 17.3273 109.409 17.3443 109.364C17.6548 108.544 17.9997 107.713 18.4296 106.945C18.5016 106.852 18.7867 106.423 18.8431 106.363C18.8512 106.355 19.8806 105.302 19.769 105.348C20.1856 105.051 21.123 104.497 20.8877 104.571C21.3816 104.363 21.8881 104.19 22.396 104.005C22.6919 103.959 22.986 103.908 23.2873 103.877C23.6416 103.838 23.9945 103.81 24.3442 103.789C24.52 103.781 25.3861 103.814 25.4139 103.798C31.7422 104.387 37.6845 106.814 43.9253 107.883C51.3158 109.15 59.1461 107.959 65.8928 104.573C73.0899 100.967 78.9417 95.6591 83.165 88.7304C87.2692 81.9963 88.6075 74.1673 88.22 66.3835C87.8571 59.1119 85.9909 52.0514 84.8227 44.8992C84.2701 41.5247 83.9215 38.1431 83.9137 34.716C83.9276 35.0304 83.995 33.3132 84.0224 33.051C84.1073 32.2411 84.2205 31.4321 84.3704 30.6322C84.5155 29.834 84.7174 29.0542 84.9158 28.2646C84.9234 28.2394 84.931 28.2143 84.9404 28.1941C85.1767 27.5701 85.4099 26.9527 85.6781 26.3395C85.8622 25.925 86.0598 25.5168 86.2709 25.1149C86.3134 25.0322 86.6278 24.4694 86.7933 24.157C86.9414 23.9349 87.1929 23.5519 87.2439 23.4773C87.5746 23.0206 87.9188 22.5703 88.2734 22.133C88.9637 21.2989 89.6993 20.4819 90.4969 19.7432C90.5798 19.6794 90.6904 19.5999 90.8253 19.4948C91.37 19.0891 91.8923 18.6525 92.4492 18.2649C94.4141 16.8827 94.6587 16.7265 96.8904 15.847C97.9396 15.4315 99.0204 15.0717 100.113 14.7916C99.8166 14.866 99.1148 14.9476 100.419 14.7419C100.973 14.6524 101.53 14.5563 102.088 14.4934C110.445 13.5084 117.966 16.9584 124.067 23.4134C126.49 25.9729 131.453 25.31 133.533 22.6025C135.965 19.4362 135.407 15.772 132.817 13.027C119.982 -0.527601 97.5459 -3.84496 82.7086 8.80763Z" fill="#770FFB"/>
</svg>
