<svg width="112" height="124" viewBox="0 0 112 124" fill="none" xmlns="http://www.w3.org/2000/svg">
<path d="M7.41202 110.483C31.0307 120.198 59.6247 129.965 83.6354 116.211C108.093 102.195 112.934 71.7541 111.255 45.8999C110.382 32.4466 106.745 18.9071 99.7588 7.21373C96.745 2.16803 90.8897 -0.693386 85.1905 1.91131C80.2377 4.17457 76.9373 11.1863 79.9663 16.2646C82.4137 20.3648 84.9728 25.768 86.2014 29.5509C86.5825 30.7083 87.4465 34.0069 87.8751 35.975C88.4035 38.4121 88.824 40.8732 89.1396 43.3501C89.7808 48.3256 89.9029 51.6065 89.6783 57.2766C89.469 62.5826 88.8848 67.8784 87.922 73.0995C87.8524 73.4889 87.8177 73.6835 87.8104 73.753C87.7097 74.2032 87.5901 74.6555 87.4785 75.1108C87.1242 76.5054 86.7351 77.8965 86.2903 79.2672C85.6136 81.3739 84.3432 84.6168 83.7131 85.902C81.7403 89.9351 78.8681 93.0459 75.092 95.9899C74.6866 96.3111 74.541 96.4385 74.5048 96.4884C74.4317 96.5159 74.2391 96.5991 73.8258 96.8183C72.711 97.4042 71.602 97.9742 70.4467 98.4733C69.4513 98.9044 68.4437 99.2949 67.4238 99.6449C67.4129 99.65 67.405 99.6471 67.4021 99.6551C66.5595 99.8893 65.6989 100.099 64.8469 100.285C62.7007 100.757 60.5184 101.08 58.3209 101.272C58.1892 101.287 57.3706 101.332 56.9276 101.36C56.6034 101.359 56.185 101.369 56.185 101.369C54.8967 101.342 53.6105 101.334 52.3236 101.253C39.4014 100.444 27.1325 95.2396 14.8064 90.1673C9.4981 87.9828 2.51049 91.1553 0.810883 96.568C-1.01188 102.369 1.71939 108.141 7.41202 110.483Z" fill="#770FFB"/>
</svg>
