<svg width="28" height="28" viewBox="0 0 28 28" fill="none" xmlns="http://www.w3.org/2000/svg">
<path d="M17.73 1.02145C16.24 0.271447 14.65 -0.068563 12.94 0.011437C11.23 -0.038563 9.63 0.321454 8.13 1.09145C6.48 1.62145 5.03996 2.53145 3.82996 3.84145C3.12996 4.76145 2.41997 5.68145 1.71997 6.59145C0.599971 8.57145 0.03 10.6914 0 12.9514C0.13 14.0414 0.259954 15.1214 0.389954 16.2114C0.969954 18.4414 2.07 20.3814 3.69 22.0114L5.40997 23.7315C6.59997 25.0215 8.01998 25.9115 9.66998 26.4215C11.16 27.1715 12.75 27.5115 14.46 27.4315C16.17 27.4815 17.77 27.1215 19.27 26.3515C20.92 25.8215 22.36 24.9115 23.57 23.6015C24.27 22.6815 24.98 21.7615 25.68 20.8515C26.8 18.8715 27.37 16.7515 27.4 14.4915C27.27 13.4015 27.1399 12.3215 27.0099 11.2315C26.4299 9.00147 25.33 7.06148 23.71 5.43148L21.99 3.71145C20.79 2.41145 19.37 1.52145 17.73 1.02145Z" fill="#770FFB"/>
</svg>
