<svg width="37" height="36" viewBox="0 0 37 36" fill="none" xmlns="http://www.w3.org/2000/svg">
<path d="M31.6215 10.39C29.6215 8.39001 27.6215 6.39001 25.6215 4.39001C22.9015 1.67001 18.8615 0 15.0115 0C11.3315 0 6.94151 1.63001 4.40151 4.39001C1.78151 7.25001 -0.168479 11 0.0115211 15C0.191521 18.98 1.53151 22.74 4.40151 25.61L10.4015 31.61C13.1215 34.33 17.1615 36 21.0115 36C24.6915 36 29.0815 34.37 31.6215 31.61C34.2415 28.75 36.1915 25 36.0115 21C35.8315 17.02 34.4915 13.27 31.6215 10.39Z" fill="#FF971E"/>
</svg>
