<svg width="124" height="126" viewBox="0 0 124 126" fill="none" xmlns="http://www.w3.org/2000/svg">
<path d="M123.079 42.0457C120.986 38.4995 116.812 37.8779 113.305 39.5095C104.382 43.655 95.5408 47.9615 86.7829 52.4233C85.1594 47.1512 83.6243 41.8514 82.172 36.5294C88.8482 33.4994 95.5408 30.5137 102.261 27.5947C105.795 26.0574 106.612 20.9407 104.823 17.9162C102.692 14.309 98.5945 13.8373 95.0493 15.3801C89.5494 17.772 84.0661 20.2137 78.5938 22.6777C77.1802 16.8674 75.8659 11.0292 74.6566 5.16892C73.8835 1.42298 69.4107 -0.735771 65.8711 0.229849C61.9394 1.30091 60.106 5.17449 60.8791 8.93153C62.2431 15.5521 63.7506 22.1505 65.3741 28.7101C57.5715 32.3228 49.802 36.0022 42.0712 39.7592C40.8011 34.1376 39.5862 28.5048 38.4377 22.8553C37.6756 19.1094 33.1808 16.9506 29.6522 17.9162C25.715 18.9873 23.8982 22.8609 24.6603 26.6179C25.9966 33.1719 27.4157 39.7093 28.9122 46.23C20.3972 50.4754 11.921 54.7985 3.49442 59.2215C0.0873382 61.0085 -0.95633 65.7034 0.932198 68.8999C2.95325 72.3184 7.28248 73.2341 10.7061 71.4361C17.8682 67.679 25.0634 63.9886 32.2862 60.3592C33.9041 66.8688 35.6104 73.3562 37.383 79.8214C29.481 84.5774 21.6563 89.461 13.9255 94.4833C10.7007 96.5755 9.34223 100.743 11.3633 104.162C13.2352 107.336 17.8958 108.807 21.1372 106.698C27.8299 102.353 34.5888 98.1127 41.4085 93.9672C44.0536 102.963 46.8477 111.914 49.8075 120.81C51.0113 124.44 54.7442 126.798 58.593 125.749C62.1823 124.773 64.7943 120.688 63.5849 117.048C60.211 106.903 57.0469 96.692 54.076 86.4198C62.1106 81.736 70.2279 77.1909 78.417 72.7846C81.9898 83.1345 85.8939 93.3734 90.1238 103.485C91.5981 107.014 94.8616 109.528 98.9092 108.424C102.272 107.508 105.387 103.274 103.901 99.7221C99.2682 88.6507 95.0273 77.424 91.1839 66.0641C100.859 61.0861 110.633 56.2969 120.506 51.713C124.007 50.1036 124.901 45.1312 123.079 42.0457ZM50.1444 72.3018C48.4933 66.1695 46.903 60.0262 45.3955 53.8551C53.2367 50.0203 61.1111 46.2578 69.0241 42.5673C70.5647 48.1113 72.1993 53.6276 73.9221 59.1216C65.9207 63.3837 57.9911 67.7734 50.1444 72.3018Z" fill="#1BBAFF"/>
</svg>
