<svg width="28" height="28" viewBox="0 0 28 28" fill="none" xmlns="http://www.w3.org/2000/svg">
<path d="M21.0214 1.63C19.0614 0.540005 16.9514 0 14.6914 0C13.6014 0.15 12.5215 0.290002 11.4315 0.440002C9.19145 1.05 7.24141 2.17996 5.58141 3.82996L3.84142 5.57001C2.53142 6.78001 1.62142 8.22 1.09142 9.87C0.321424 11.37 -0.0385622 12.97 0.0114378 14.68C-0.0685622 16.39 0.271417 17.99 1.02142 19.47C1.52142 21.12 2.42142 22.54 3.71142 23.73C4.62142 24.42 5.53145 25.11 6.43145 25.8C8.39145 26.89 10.5014 27.43 12.7614 27.43C13.8514 27.28 14.9314 27.14 16.0214 26.99C18.2614 26.38 20.2115 25.25 21.8715 23.6L23.6114 21.86C24.9214 20.65 25.8314 19.21 26.3614 17.56C27.1314 16.06 27.4914 14.46 27.4414 12.75C27.5214 11.04 27.1815 9.43996 26.4315 7.95996C25.9315 6.30996 25.0314 4.88995 23.7414 3.69995C22.8314 3.00995 21.9214 2.32 21.0214 1.63Z" fill="#FB0F5A"/>
</svg>
